# xmcd
# 
# Track frame offsets:
#     150
#     13052
#     25190
#     38115
#     53332
#     67210
#     79407
#     92767
#     107270
#     118665
#     131672
# 
# Disc length: 1926
# 
# Revision: 6
# Processed by: cddbd v1.5.2PL0 Copyright (c) Steve Scherf et al.
# Submitted via: fre:ac v1.0.31
# 
DISCID=8a07840b
DTITLE=Muddy Waters - Folha Soul and Blues
DYEAR=2015
DGENRE=R&B
TTITLE0=I Just Want To Make Love To You
TTITLE1=Long Distance Call
TTITLE2=I'm Your Hoochie Coochie Man
TTITLE3=Honey Bee
TTITLE4=I'm Ready
TTITLE5=Trouble No More
TTITLE6=Mannish Boy
TTITLE7=Rock Me
TTITLE8=Sugar Sweet
TTITLE9=Forty Days and Forty Nights
TTITLE10=Got My Mojo Working
EXTD=
EXTT0=
EXTT1=
EXTT2=
EXTT3=
EXTT4=
EXTT5=
EXTT6=
EXTT7=
EXTT8=
EXTT9=
EXTT10=
PLAYORDER=
